<?xml version="1.0" encoding="UTF-8"?>
<svg id="Capa_1" data-name="Capa 1" xmlns="http://www.w3.org/2000/svg" viewBox="0 0 1080 1080">
  <defs>
    <style>
      .cls-1 {
        fill: #f7b032;
      }

      .cls-1, .cls-2 {
        stroke-width: 0px;
      }
    </style>
  </defs>
  <polygon class="cls-1" points="481.7 484.45 331.89 479.4 417.73 258.9 670.22 260.58 618.04 390.19 751.02 393.56 427.83 821.1 481.7 484.45"/>
  <g>
    <path class="cls-2" d="m368.13,398v173.83c0,1.7-.59,3.14-1.77,4.33-1.18,1.19-2.62,1.78-4.3,1.78h-38.24c-1.69,0-3.13-.59-4.31-1.78-1.18-1.18-1.77-2.63-1.77-4.33v-81.95c0-1.69-.77-2.63-2.3-2.8-1.53-.17-2.81.43-3.83,1.78l-42.86,68.97c-.85,1.36-2.21,2.04-4.08,2.04s-3.32-.68-4.34-2.04l-42.86-68.97c-.85-1.36-2.04-1.95-3.57-1.78-1.53.17-2.29,1.11-2.29,2.8v81.95c0,1.7-.59,3.14-1.77,4.33-1.18,1.19-2.62,1.78-4.3,1.78h-38.24c-1.69,0-3.13-.59-4.31-1.78-1.18-1.18-1.77-2.63-1.77-4.33v-173.83c0-1.69.59-3.14,1.77-4.33,1.18-1.19,2.62-1.78,4.3-1.78h35.46c1.69,0,3.46.51,5.32,1.53,1.86,1.02,3.21,2.21,4.05,3.56l48.98,71.77c1.02,1.36,2.21,2.04,3.57,2.04s2.47-.68,3.32-2.04l48.98-71.77c1.01-1.36,2.45-2.54,4.3-3.56,1.86-1.02,3.63-1.53,5.32-1.53h35.46c1.69,0,3.12.6,4.3,1.78,1.18,1.19,1.77,2.63,1.77,4.33Z"/>
    <path class="cls-2" d="m487.06,527.79h-22.2c-1.7,0-3.15.6-4.34,1.78-1.19,1.19-1.79,2.63-1.79,4.33v37.92c0,1.7-.59,3.14-1.77,4.33-1.18,1.19-2.62,1.78-4.3,1.78h-38.24c-1.69,0-3.13-.59-4.31-1.78-1.18-1.18-1.77-2.63-1.77-4.33v-174.08c0-1.69.59-3.14,1.78-4.33,1.19-1.18,2.63-1.78,4.33-1.78h77.88c9.5,0,18.45,1.78,26.85,5.34,8.4,3.56,15.69,8.49,21.89,14.76,6.19,6.28,11.11,13.58,14.76,21.89,3.65,8.32,5.47,17.22,5.47,26.72s-1.53,18.37-4.59,26.6c-3.06,8.23-7.7,15.36-13.91,21.38-6.21,6.02-13.95,10.78-23.22,14.25-9.27,3.48-20.11,5.22-32.53,5.22Zm1.86-89.33h-24.04c-1.71,0-3.16.59-4.35,1.77-1.19,1.18-1.79,2.61-1.79,4.3v29.85c0,1.69.6,3.12,1.79,4.3,1.19,1.18,2.64,1.77,4.35,1.77h27.36c6.48,0,11.21-2.06,14.19-6.2,2.98-4.13,4.48-8.81,4.48-14.04,0-2.7-.47-5.35-1.41-7.97-.94-2.61-2.34-4.93-4.22-6.96-1.88-2.02-4.18-3.67-6.9-4.93-2.73-1.26-5.89-1.9-9.46-1.9Z"/>
    <path class="cls-2" d="m761.09,528.56c-4.92,7.95-10.35,15.17-16.29,21.67-5.94,6.5-12.6,12.03-19.98,16.58-7.38,4.56-15.57,8.1-24.56,10.63-8.99,2.53-18.92,3.8-29.78,3.8-13.58,0-26.3-2.54-38.18-7.63-11.88-5.09-22.27-11.96-31.18-20.62-8.91-8.65-15.91-18.83-21-30.54-5.09-11.71-7.63-24.18-7.63-37.41s2.54-25.7,7.63-37.41c5.09-11.71,12.09-21.89,21-30.54,8.91-8.65,19.3-15.53,31.18-20.62,11.87-5.09,24.6-7.64,38.18-7.64,11.2,0,21.29,1.27,30.29,3.82,8.99,2.54,17.14,6.11,24.43,10.69,7.29,4.58,13.87,10.14,19.72,16.67,5.85,6.53,11.24,13.7,16.16,21.51.85,1.36,1.02,2.8.51,4.33-.51,1.53-1.53,2.63-3.05,3.31l-36.14,14.25c-1.7.68-3.4.68-5.09,0-1.7-.68-2.97-1.69-3.82-3.05-4.92-7.8-10.86-13.78-17.82-17.94-6.96-4.16-15.36-6.23-25.2-6.23-6.45,0-12.52,1.36-18.2,4.08-5.69,2.72-10.65,6.34-14.89,10.84-4.24,4.51-7.55,9.74-9.93,15.69-2.38,5.96-3.56,12.08-3.56,18.37s1.19,12.63,3.56,18.5c2.37,5.87,5.68,11.02,9.93,15.44,4.24,4.42,9.2,8,14.89,10.72,5.68,2.72,11.75,4.08,18.2,4.08,9.33,0,17.77-2.25,25.32-6.74,7.55-4.49,13.53-10.31,17.94-17.43.85-1.36,2.07-2.37,3.69-3.05,1.61-.68,3.26-.68,4.96,0l36.14,14.25c1.53.68,2.55,1.74,3.05,3.18.51,1.44.34,2.93-.51,4.45Z"/>
    <path class="cls-2" d="m830.31,444.57v10.69c0,1.7.59,3.14,1.78,4.33,1.18,1.19,2.63,1.78,4.33,1.78h68.97c1.69,0,3.14.6,4.33,1.78,1.18,1.19,1.78,2.63,1.78,4.33v35.12c0,1.7-.6,3.14-1.78,4.33-1.19,1.19-2.63,1.78-4.33,1.78h-68.97c-1.7,0-3.14.6-4.33,1.78-1.19,1.19-1.78,2.63-1.78,4.33v9.67c0,1.7.59,3.14,1.78,4.33,1.18,1.19,2.63,1.78,4.33,1.78h79.15c1.69,0,3.14.6,4.33,1.78,1.18,1.19,1.78,2.63,1.78,4.33v35.12c0,1.7-.6,3.14-1.78,4.33-1.19,1.19-2.63,1.78-4.33,1.78h-129.54c-1.7,0-3.14-.59-4.33-1.78-1.19-1.18-1.78-2.63-1.78-4.33v-174.08c0-1.69.59-3.14,1.78-4.33,1.18-1.18,2.63-1.78,4.33-1.78h129.54c1.69,0,3.14.6,4.33,1.78,1.18,1.19,1.78,2.63,1.78,4.33v34.61c0,1.7-.6,3.14-1.78,4.33-1.19,1.19-2.63,1.78-4.33,1.78h-79.15c-1.7,0-3.14.6-4.33,1.78-1.19,1.19-1.78,2.63-1.78,4.33Z"/>
  </g>
  <g>
    <path class="cls-2" d="m177.1,600.41c-.17-3-.36-6.65-.34-9.32h-.09c-.74,2.51-1.64,5.23-2.72,8.19l-3.81,10.48h-2.11l-3.52-10.29c-1.03-3.05-1.87-5.82-2.47-8.38h-.08c-.08,2.69-.22,6.29-.42,9.53l-.57,9.27h-2.65l1.5-21.6h3.56l3.68,10.45c.89,2.64,1.61,5.02,2.18,7.28h.08c.57-2.19,1.32-4.57,2.29-7.27l3.85-10.46h3.57l1.34,21.6h-2.74l-.52-9.48Z"/>
    <path class="cls-2" d="m193.35,609.9l-.25-1.96h-.08c-.85,1.21-2.52,2.31-4.74,2.31-3.13,0-4.73-2.22-4.73-4.45,0-3.75,3.33-5.82,9.31-5.77v-.33c0-1.26-.35-3.59-3.53-3.58-1.44,0-2.95.43-4.04,1.16l-.64-1.87c1.28-.83,3.16-1.36,5.12-1.36,4.74,0,5.89,3.24,5.89,6.34v5.8c0,1.32.06,2.64.23,3.71h-2.54Zm-.44-7.91c-3.05-.06-6.54.48-6.54,3.48,0,1.85,1.22,2.7,2.63,2.7,2.04,0,3.33-1.29,3.78-2.6.1-.3.13-.62.13-.89v-2.7Z"/>
    <path class="cls-2" d="m200.2,598.59c0-1.62-.05-2.9-.13-4.19h2.49l.16,2.55h.08c.76-1.46,2.57-2.9,5.12-2.9,2.13,0,5.46,1.28,5.46,6.61v9.25h-2.8v-8.94c0-2.5-.94-4.6-3.58-4.6-1.85,0-3.29,1.32-3.8,2.89-.12.34-.19.84-.19,1.31v9.34h-2.8v-11.31Z"/>
    <path class="cls-2" d="m221.24,589.94v4.46h4.05v2.14h-4.05v8.35c0,1.93.56,3.02,2.13,3.02.73,0,1.26-.09,1.63-.2l.13,2.14c-.55.22-1.42.39-2.52.39-1.3,0-2.37-.43-3.04-1.19-.78-.85-1.09-2.22-1.09-4.04v-8.46h-2.4v-2.14h2.4v-3.73l2.76-.73Z"/>
    <path class="cls-2" d="m229.86,602.66c.06,3.81,2.47,5.38,5.3,5.38,2.02,0,3.25-.36,4.29-.79l.49,2c-.99.45-2.71.99-5.17.99-4.76,0-7.63-3.17-7.63-7.82s2.77-8.37,7.29-8.37c5.06,0,6.38,4.44,6.38,7.29,0,.59-.03,1.02-.1,1.32h-10.87Zm8.25-2.03c.03-1.78-.73-4.56-3.89-4.56-2.88,0-4.1,2.6-4.33,4.56h8.22Z"/>
    <path class="cls-2" d="m244.34,598.59c0-1.62-.05-2.9-.13-4.19h2.49l.16,2.55h.08c.76-1.46,2.57-2.9,5.12-2.9,2.13,0,5.46,1.28,5.46,6.61v9.25h-2.8v-8.94c0-2.5-.94-4.6-3.58-4.6-1.85,0-3.29,1.32-3.8,2.89-.12.34-.19.84-.19,1.31v9.34h-2.8v-11.31Z"/>
    <path class="cls-2" d="m265.27,590.02c0,.96-.67,1.75-1.79,1.75-1.02,0-1.7-.79-1.7-1.75,0-.97.72-1.75,1.75-1.75s1.73.77,1.74,1.75Zm-3.15,19.88v-15.5h2.8v15.5h-2.8Z"/>
    <path class="cls-2" d="m269.62,598.59c0-1.62-.05-2.9-.13-4.19h2.45l.15,2.5h.08c.86-1.47,2.31-2.85,4.89-2.85,2.1,0,3.7,1.28,4.37,3.11h.06c.5-.88,1.11-1.55,1.75-2.02.94-.7,1.95-1.09,3.41-1.09,2.07,0,5.12,1.33,5.12,6.72v9.13h-2.75v-8.77c0-3-1.11-4.78-3.36-4.78-1.62,0-2.86,1.18-3.35,2.54-.13.41-.23.91-.23,1.41v9.59h-2.75v-9.3c0-2.47-1.09-4.24-3.22-4.24-1.76,0-3.05,1.4-3.51,2.81-.14.41-.21.9-.21,1.39v9.34h-2.75v-11.31Z"/>
    <path class="cls-2" d="m299.5,590.02c0,.96-.67,1.75-1.79,1.75-1.02,0-1.7-.79-1.7-1.75,0-.97.72-1.75,1.75-1.75s1.73.77,1.74,1.75Zm-3.15,19.88v-15.5h2.8v15.5h-2.8Z"/>
    <path class="cls-2" d="m305.43,602.66c.06,3.81,2.47,5.38,5.3,5.38,2.02,0,3.25-.36,4.29-.79l.49,2c-.99.45-2.71.99-5.17.99-4.76,0-7.63-3.17-7.63-7.82s2.77-8.37,7.29-8.37c5.06,0,6.38,4.44,6.38,7.29,0,.59-.03,1.02-.1,1.32h-10.87Zm8.25-2.03c.03-1.78-.73-4.56-3.89-4.56-2.88,0-4.1,2.6-4.33,4.56h8.22Z"/>
    <path class="cls-2" d="m319.91,598.59c0-1.62-.05-2.9-.13-4.19h2.49l.16,2.55h.08c.76-1.46,2.57-2.9,5.12-2.9,2.13,0,5.46,1.28,5.46,6.61v9.25h-2.8v-8.94c0-2.5-.94-4.6-3.58-4.6-1.85,0-3.29,1.32-3.8,2.89-.12.34-.19.84-.19,1.31v9.34h-2.8v-11.31Z"/>
    <path class="cls-2" d="m340.95,589.94v4.46h4.05v2.14h-4.05v8.35c0,1.93.56,3.02,2.13,3.02.73,0,1.26-.09,1.63-.2l.13,2.14c-.55.22-1.42.39-2.52.39-1.3,0-2.37-.43-3.04-1.19-.78-.85-1.09-2.22-1.09-4.04v-8.46h-2.4v-2.14h2.4v-3.73l2.76-.73Z"/>
    <path class="cls-2" d="m362.01,602c0,5.74-3.98,8.25-7.71,8.25-4.2,0-7.45-3.06-7.45-7.98,0-5.19,3.41-8.22,7.7-8.22s7.46,3.23,7.46,7.95Zm-12.29.18c0,3.4,1.95,5.96,4.7,5.96s4.72-2.53,4.72-6.04c0-2.62-1.32-5.94-4.67-5.94s-4.75,3.08-4.75,6.02Z"/>
    <path class="cls-2" d="m362.99,613.85c.7-1.92,1.57-5.33,1.92-7.68l3.13-.32c-.76,2.73-2.16,6.28-3.07,7.79l-1.99.21Z"/>
    <path class="cls-2" d="m378.23,599.45c0-1.98-.05-3.59-.13-5.05h2.52l.16,2.64h.06c1.13-1.89,2.98-2.99,5.5-2.99,3.75,0,6.58,3.16,6.58,7.86,0,5.59-3.42,8.34-7.05,8.34-2.07,0-3.85-.9-4.78-2.44h-.06v8.43h-2.8v-16.8Zm2.8,4.14c0,.4.04.78.12,1.15.51,1.97,2.21,3.31,4.21,3.31,2.99,0,4.71-2.45,4.71-6,0-3.09-1.62-5.75-4.6-5.75-1.92,0-3.73,1.36-4.26,3.48-.09.36-.18.77-.18,1.15v2.68Z"/>
    <path class="cls-2" d="m396.47,599.23c0-1.83-.05-3.39-.13-4.83h2.47l.11,3.04h.1c.72-2.08,2.43-3.39,4.32-3.39.31,0,.53.02.78.08v2.65c-.29-.06-.57-.08-.96-.08-1.99,0-3.39,1.5-3.77,3.61-.07.4-.11.86-.11,1.32v8.28h-2.8v-10.67Z"/>
    <path class="cls-2" d="m420.66,602c0,5.74-3.98,8.25-7.71,8.25-4.2,0-7.45-3.06-7.45-7.98,0-5.19,3.41-8.22,7.7-8.22s7.46,3.23,7.46,7.95Zm-12.29.18c0,3.4,1.95,5.96,4.7,5.96s4.72-2.53,4.72-6.04c0-2.62-1.32-5.94-4.67-5.94s-4.75,3.08-4.75,6.02Z"/>
    <path class="cls-2" d="m425.02,594.4l3.39,9.16c.36,1.02.74,2.24,1,3.16h.08c.28-.91.62-2.1.99-3.23l3.07-9.1h2.99l-4.24,11.04c-2.01,5.33-3.39,8.04-5.31,9.72-1.39,1.21-2.77,1.68-3.46,1.81l-.7-2.36c.71-.22,1.62-.66,2.47-1.38.76-.62,1.7-1.71,2.36-3.14.14-.3.22-.51.22-.68,0-.16-.05-.38-.2-.72l-5.72-14.3h3.07Z"/>
    <path class="cls-2" d="m440.36,602.66c.06,3.81,2.47,5.38,5.3,5.38,2.02,0,3.25-.36,4.29-.79l.49,2c-.99.45-2.71.99-5.17.99-4.76,0-7.63-3.17-7.63-7.82s2.77-8.37,7.29-8.37c5.06,0,6.38,4.44,6.38,7.29,0,.59-.03,1.02-.1,1.32h-10.87Zm8.25-2.03c.03-1.78-.73-4.56-3.89-4.56-2.88,0-4.1,2.6-4.33,4.56h8.22Z"/>
    <path class="cls-2" d="m465.89,609.34c-.74.36-2.36.9-4.45.9-4.67,0-7.73-3.18-7.73-7.92s3.26-8.26,8.33-8.26c1.66,0,3.16.42,3.92.83l-.63,2.16c-.69-.37-1.75-.75-3.3-.75-3.54,0-5.47,2.65-5.47,5.87,0,3.59,2.31,5.8,5.4,5.8,1.58,0,2.65-.4,3.45-.74l.48,2.12Z"/>
    <path class="cls-2" d="m472.99,589.94v4.46h4.05v2.14h-4.05v8.35c0,1.93.56,3.02,2.13,3.02.73,0,1.26-.09,1.63-.2l.13,2.14c-.55.22-1.42.39-2.52.39-1.3,0-2.37-.43-3.04-1.19-.78-.85-1.09-2.22-1.09-4.04v-8.46h-2.4v-2.14h2.4v-3.73l2.76-.73Z"/>
    <path class="cls-2" d="m494.06,602c0,5.74-3.98,8.25-7.71,8.25-4.2,0-7.45-3.06-7.45-7.98,0-5.19,3.41-8.22,7.7-8.22s7.46,3.23,7.46,7.95Zm-12.29.18c0,3.4,1.95,5.96,4.7,5.96s4.72-2.53,4.72-6.04c0-2.62-1.32-5.94-4.67-5.94s-4.75,3.08-4.75,6.02Z"/>
    <path class="cls-2" d="m505.44,594.4l3.39,9.16c.36,1.02.74,2.24,1,3.16h.08c.28-.91.62-2.1.99-3.23l3.07-9.1h2.99l-4.24,11.04c-2.01,5.33-3.39,8.04-5.31,9.72-1.39,1.21-2.77,1.68-3.46,1.81l-.7-2.36c.71-.22,1.62-.66,2.47-1.38.76-.62,1.7-1.71,2.36-3.14.14-.3.22-.51.22-.68,0-.16-.05-.38-.2-.72l-5.72-14.3h3.07Z"/>
    <path class="cls-2" d="m537.36,609.34c-.74.36-2.36.9-4.45.9-4.67,0-7.73-3.18-7.73-7.92s3.26-8.26,8.33-8.26c1.66,0,3.16.42,3.92.83l-.63,2.16c-.69-.37-1.74-.75-3.3-.75-3.54,0-5.48,2.65-5.47,5.87,0,3.59,2.31,5.8,5.4,5.8,1.58,0,2.65-.4,3.45-.74l.48,2.12Z"/>
    <path class="cls-2" d="m554.5,602c0,5.74-3.98,8.25-7.71,8.25-4.2,0-7.45-3.06-7.45-7.98,0-5.19,3.41-8.22,7.7-8.22s7.46,3.23,7.46,7.95Zm-12.29.18c0,3.4,1.95,5.96,4.7,5.96s4.72-2.53,4.72-6.04c0-2.62-1.32-5.94-4.67-5.94s-4.75,3.08-4.75,6.02Z"/>
    <path class="cls-2" d="m558.07,598.59c0-1.62-.05-2.9-.13-4.19h2.49l.16,2.55h.08c.76-1.46,2.56-2.9,5.12-2.9,2.13,0,5.46,1.28,5.46,6.61v9.25h-2.81v-8.94c0-2.5-.94-4.6-3.58-4.6-1.85,0-3.29,1.32-3.8,2.89-.12.34-.19.84-.19,1.31v9.34h-2.8v-11.31Z"/>
    <path class="cls-2" d="m575.46,607.03c.85.53,2.33,1.1,3.74,1.1,2.06,0,3.01-1.01,3.01-2.31s-.82-2.07-2.88-2.84c-2.8-1.01-4.13-2.54-4.12-4.4,0-2.5,2.03-4.54,5.36-4.54,1.58,0,2.93.43,3.8.95l-.7,2.05c-.6-.37-1.73-.91-3.18-.91-1.66,0-2.57.96-2.57,2.13,0,1.28.91,1.86,2.94,2.64,2.67,1,4.06,2.34,4.07,4.66,0,2.75-2.14,4.67-5.8,4.67-1.7,0-3.26-.44-4.36-1.08l.68-2.13Z"/>
    <path class="cls-2" d="m591.93,589.94v4.46h4.05v2.14h-4.05v8.35c0,1.93.56,3.02,2.13,3.02.73,0,1.26-.09,1.63-.2l.13,2.14c-.55.22-1.42.39-2.52.39-1.29,0-2.37-.43-3.04-1.19-.78-.85-1.09-2.22-1.09-4.04v-8.46h-2.4v-2.14h2.4v-3.73l2.76-.73Z"/>
    <path class="cls-2" d="m599.15,599.23c0-1.83-.04-3.39-.13-4.83h2.47l.11,3.04h.1c.72-2.08,2.43-3.39,4.32-3.39.31,0,.53.02.78.08v2.65c-.29-.06-.57-.08-.96-.08-1.99,0-3.39,1.5-3.77,3.61-.07.4-.11.86-.11,1.32v8.28h-2.8v-10.67Z"/>
    <path class="cls-2" d="m622.53,605.66c0,1.63.05,3.02.13,4.24h-2.49l-.15-2.53h-.08c-.71,1.25-2.35,2.89-5.13,2.89-2.42,0-5.34-1.36-5.34-6.79v-9.06h2.81v8.56c0,2.95.92,4.96,3.46,4.96,1.89,0,3.21-1.32,3.73-2.59.15-.41.26-.91.26-1.45v-9.49h2.8v11.26Z"/>
    <path class="cls-2" d="m638.28,609.34c-.74.36-2.36.9-4.45.9-4.67,0-7.73-3.18-7.73-7.92s3.26-8.26,8.33-8.26c1.66,0,3.16.42,3.92.83l-.63,2.16c-.69-.37-1.74-.75-3.3-.75-3.54,0-5.48,2.65-5.47,5.87,0,3.59,2.31,5.8,5.4,5.8,1.58,0,2.65-.4,3.45-.74l.48,2.12Z"/>
    <path class="cls-2" d="m652.45,609.34c-.74.36-2.36.9-4.45.9-4.67,0-7.73-3.18-7.73-7.92s3.26-8.26,8.33-8.26c1.66,0,3.16.42,3.92.83l-.63,2.16c-.69-.37-1.74-.75-3.3-.75-3.54,0-5.48,2.65-5.47,5.87,0,3.59,2.31,5.8,5.4,5.8,1.58,0,2.65-.4,3.45-.74l.48,2.12Z"/>
    <path class="cls-2" d="m658.9,590.02c0,.96-.67,1.75-1.79,1.75-1.02,0-1.7-.79-1.7-1.75,0-.97.72-1.75,1.75-1.75s1.74.77,1.74,1.75Zm-3.15,19.88v-15.5h2.8v15.5h-2.8Z"/>
    <path class="cls-2" d="m677.28,602c0,5.74-3.98,8.25-7.71,8.25-4.2,0-7.45-3.06-7.45-7.98,0-5.19,3.41-8.22,7.7-8.22s7.46,3.23,7.46,7.95Zm-12.29.18c0,3.4,1.95,5.96,4.7,5.96s4.72-2.53,4.72-6.04c0-2.62-1.32-5.94-4.67-5.94s-4.75,3.08-4.75,6.02Zm8.92-14.51l-3.91,4.59h-2l2.81-4.59h3.1Z"/>
    <path class="cls-2" d="m680.85,598.59c0-1.62-.05-2.9-.13-4.19h2.49l.16,2.55h.08c.76-1.46,2.56-2.9,5.12-2.9,2.13,0,5.46,1.28,5.46,6.61v9.25h-2.81v-8.94c0-2.5-.94-4.6-3.58-4.6-1.85,0-3.29,1.32-3.8,2.89-.12.34-.19.84-.19,1.31v9.34h-2.8v-11.31Z"/>
    <path class="cls-2" d="m707.01,602.66c.06,3.81,2.47,5.38,5.3,5.38,2.02,0,3.25-.36,4.29-.79l.49,2c-.99.45-2.71.99-5.17.99-4.76,0-7.63-3.17-7.63-7.82s2.77-8.37,7.29-8.37c5.06,0,6.38,4.44,6.38,7.29,0,.59-.03,1.02-.1,1.32h-10.87Zm8.25-2.03c.03-1.78-.73-4.56-3.89-4.56-2.88,0-4.1,2.6-4.33,4.56h8.21Z"/>
    <path class="cls-2" d="m721.49,587.15h2.8v22.75h-2.8v-22.75Z"/>
    <path class="cls-2" d="m730.63,602.66c.06,3.81,2.47,5.38,5.3,5.38,2.02,0,3.25-.36,4.29-.79l.49,2c-.99.45-2.71.99-5.17.99-4.76,0-7.63-3.17-7.63-7.82s2.77-8.37,7.29-8.37c5.06,0,6.38,4.44,6.38,7.29,0,.59-.03,1.02-.1,1.32h-10.87Zm8.25-2.03c.03-1.78-.73-4.56-3.89-4.56-2.88,0-4.1,2.6-4.33,4.56h8.21Z"/>
    <path class="cls-2" d="m756.16,609.34c-.74.36-2.36.9-4.45.9-4.67,0-7.73-3.18-7.73-7.92s3.26-8.26,8.33-8.26c1.66,0,3.16.42,3.92.83l-.63,2.16c-.69-.37-1.74-.75-3.3-.75-3.54,0-5.48,2.65-5.47,5.87,0,3.59,2.31,5.8,5.4,5.8,1.58,0,2.65-.4,3.45-.74l.48,2.12Z"/>
    <path class="cls-2" d="m763.27,589.94v4.46h4.05v2.14h-4.05v8.35c0,1.93.56,3.02,2.13,3.02.73,0,1.26-.09,1.63-.2l.13,2.14c-.55.22-1.42.39-2.52.39-1.29,0-2.37-.43-3.04-1.19-.78-.85-1.09-2.22-1.09-4.04v-8.46h-2.4v-2.14h2.4v-3.73l2.76-.73Z"/>
    <path class="cls-2" d="m770.49,599.23c0-1.83-.04-3.39-.13-4.83h2.47l.11,3.04h.1c.72-2.08,2.43-3.39,4.32-3.39.31,0,.53.02.78.08v2.65c-.29-.06-.57-.08-.96-.08-1.99,0-3.39,1.5-3.77,3.61-.07.4-.11.86-.11,1.32v8.28h-2.8v-10.67Z"/>
    <path class="cls-2" d="m794.68,602c0,5.74-3.98,8.25-7.71,8.25-4.2,0-7.45-3.06-7.45-7.98,0-5.19,3.41-8.22,7.7-8.22s7.46,3.23,7.46,7.95Zm-12.29.18c0,3.4,1.95,5.96,4.7,5.96s4.72-2.53,4.72-6.04c0-2.62-1.32-5.94-4.67-5.94s-4.75,3.08-4.75,6.02Z"/>
    <path class="cls-2" d="m798.25,598.59c0-1.62-.05-2.9-.13-4.19h2.45l.15,2.5h.08c.86-1.47,2.31-2.85,4.89-2.85,2.1,0,3.7,1.28,4.37,3.11h.06c.5-.88,1.11-1.55,1.75-2.02.94-.7,1.95-1.09,3.41-1.09,2.07,0,5.12,1.33,5.12,6.72v9.13h-2.75v-8.77c0-3-1.11-4.78-3.36-4.78-1.62,0-2.86,1.18-3.35,2.54-.13.41-.23.91-.23,1.41v9.59h-2.75v-9.3c0-2.47-1.09-4.24-3.22-4.24-1.76,0-3.04,1.4-3.51,2.81-.14.41-.21.9-.21,1.39v9.34h-2.75v-11.31Z"/>
    <path class="cls-2" d="m826.55,602.66c.06,3.81,2.47,5.38,5.3,5.38,2.02,0,3.25-.36,4.29-.79l.49,2c-.99.45-2.71.99-5.17.99-4.76,0-7.63-3.17-7.63-7.82s2.77-8.37,7.29-8.37c5.06,0,6.38,4.44,6.38,7.29,0,.59-.03,1.02-.1,1.32h-10.87Zm8.25-2.03c.03-1.78-.73-4.56-3.89-4.56-2.88,0-4.1,2.6-4.33,4.56h8.21Z"/>
    <path class="cls-2" d="m852.08,609.34c-.74.36-2.36.9-4.45.9-4.67,0-7.73-3.18-7.73-7.92s3.26-8.26,8.33-8.26c1.66,0,3.16.42,3.92.83l-.63,2.16c-.69-.37-1.74-.75-3.3-.75-3.54,0-5.48,2.65-5.47,5.87,0,3.59,2.31,5.8,5.4,5.8,1.58,0,2.65-.4,3.45-.74l.48,2.12Z"/>
    <path class="cls-2" d="m864.02,609.9l-.25-1.96h-.08c-.85,1.21-2.52,2.31-4.74,2.31-3.13,0-4.73-2.22-4.73-4.45,0-3.75,3.33-5.82,9.31-5.77v-.33c0-1.26-.35-3.59-3.53-3.58-1.44,0-2.95.43-4.04,1.16l-.64-1.87c1.28-.83,3.16-1.36,5.12-1.36,4.74,0,5.89,3.24,5.89,6.34v5.8c0,1.32.06,2.64.23,3.71h-2.54Zm-.44-7.91c-3.05-.06-6.54.48-6.54,3.48,0,1.85,1.22,2.7,2.63,2.7,2.04,0,3.33-1.29,3.78-2.6.1-.3.13-.62.13-.89v-2.7Zm1.42-14.31l-3.91,4.59h-2l2.81-4.59h3.1Z"/>
    <path class="cls-2" d="m870.87,598.59c0-1.62-.05-2.9-.13-4.19h2.49l.16,2.55h.08c.76-1.46,2.56-2.9,5.12-2.9,2.13,0,5.46,1.28,5.46,6.61v9.25h-2.81v-8.94c0-2.5-.94-4.6-3.58-4.6-1.85,0-3.29,1.32-3.8,2.89-.12.34-.19.84-.19,1.31v9.34h-2.8v-11.31Z"/>
    <path class="cls-2" d="m891.81,590.02c0,.96-.67,1.75-1.79,1.75-1.02,0-1.7-.79-1.7-1.75,0-.97.72-1.75,1.75-1.75s1.74.77,1.74,1.75Zm-3.15,19.88v-15.5h2.8v15.5h-2.8Z"/>
    <path class="cls-2" d="m907.21,609.34c-.74.36-2.36.9-4.45.9-4.67,0-7.73-3.18-7.73-7.92s3.26-8.26,8.33-8.26c1.66,0,3.16.42,3.92.83l-.63,2.16c-.69-.37-1.74-.75-3.3-.75-3.54,0-5.48,2.65-5.47,5.87,0,3.59,2.31,5.8,5.4,5.8,1.58,0,2.65-.4,3.45-.74l.48,2.12Z"/>
    <path class="cls-2" d="m919.14,609.9l-.25-1.96h-.08c-.85,1.21-2.52,2.31-4.74,2.31-3.13,0-4.73-2.22-4.73-4.45,0-3.75,3.33-5.82,9.31-5.77v-.33c0-1.26-.35-3.59-3.53-3.58-1.44,0-2.95.43-4.04,1.16l-.64-1.87c1.28-.83,3.16-1.36,5.12-1.36,4.74,0,5.89,3.24,5.89,6.34v5.8c0,1.32.06,2.64.23,3.71h-2.54Zm-.44-7.91c-3.05-.06-6.54.48-6.54,3.48,0,1.85,1.22,2.7,2.63,2.7,2.04,0,3.33-1.29,3.78-2.6.1-.3.13-.62.13-.89v-2.7Z"/>
  </g>
</svg>