<?xml version="1.0" encoding="UTF-8"?>
<svg width="313px" height="313px" viewBox="0 0 313 313" version="1.1" xmlns="http://www.w3.org/2000/svg" xmlns:xlink="http://www.w3.org/1999/xlink">
    <title>whatsapp-white</title>
    <g id="whatsapp-white" stroke="none" stroke-width="1" fill="none" fill-rule="evenodd">
        <g id="btn_whatsapp" transform="translate(10.000000, 4.000000)" fill="#FFFFFF" fill-rule="nonzero">
            <path d="M6.76582484,305 C4.98915351,304.969737 3.28984442,304.268371 2.00966808,303.036963 C0.021603678,301.059197 -0.552640151,298.067155 0.562142105,295.494766 L28.3753197,232.884202 C10.062927,207.929848 0.242031275,177.764838 0.35535268,146.820506 C0.311833335,80.2981192 45.0652194,22.0716669 109.395366,4.95385179 C173.725513,-12.1639633 241.530745,16.1114052 274.600372,73.8457687 C307.67,131.580132 297.726777,204.322724 250.374069,251.080474 C203.021361,297.838223 130.111431,306.907783 72.7316513,273.178129 L10.1778503,304.173458 C9.12133567,304.713136 7.9523728,304.99631 6.76582484,305 L6.76582484,305 Z M146.658871,13.7461492 C73.1570082,13.8610115 13.6003494,73.3733462 13.4864452,146.820506 C13.4648942,176.03481 23.1777937,204.424806 41.0928693,227.511678 C42.537562,229.485866 42.85087,232.068733 41.920027,234.330651 L20.4139269,283.406588 L69.7332046,259.436867 C71.7541557,258.295042 74.2261204,258.295042 76.2470715,259.436867 C124.208715,289.606373 186.024439,286.139007 230.305847,250.795405 C274.587254,215.451803 291.632434,155.975631 272.786294,102.567326 C253.940153,49.1590202 203.331818,13.5201627 146.658871,13.7461492 Z" id="Shape"></path>
            <path d="M74,112.710748 C73.9361583,99.7313419 79.121917,87.2707302 88.3921512,78.1299614 C94.1609777,73.8196879 101.771207,72.805842 108.47821,75.4540672 C110.135131,76.9148862 111.353432,78.8026796 111.998447,80.9087745 C115.725757,91.4065132 119.17697,102.007171 122.352086,112.710748 C122.977241,115.043795 122.757347,117.521056 121.730868,119.70924 C119.096306,124.143774 116.082627,128.344653 112.723202,132.265359 C110.262244,134.632588 109.709967,138.348788 111.377229,141.322232 C121.228426,162.762086 138.137334,180.223613 159.314576,190.826274 C161.834135,192.338393 165.108288,191.559115 166.66566,189.076651 C170.185897,184.445295 174.016743,180.122697 177.019299,175.285504 C180.021854,170.44831 182.506727,170.654149 186.130501,172.815448 C195.552312,178.270155 204.974123,183.107348 214.188862,189.488327 C216.129683,191.53989 217.140002,194.2924 216.984344,197.104333 C216.622555,212.019575 206.067003,224.763636 191.410856,227.980035 C184.01826,229.701442 176.280615,229.236374 169.150533,226.642088 C136.365423,215.434479 108.94544,192.506754 92.2229975,162.317709 C84.1859248,150.545665 78.3303204,137.440404 74.9324209,123.620162 C74.7253481,119.915078 74.5182753,116.209994 74,112.710748 Z" id="Path"></path>
        </g>
    </g>
</svg>